<svg width="21" height="21" viewBox="0 0 21 21" fill="none" xmlns="http://www.w3.org/2000/svg">
<g clip-path="url(#clip0_813_1202)">
<path d="M14.7656 8.53125C11.6813 8.53125 9.1875 11.025 9.1875 14.1094C9.1875 17.1937 11.6813 19.6875 14.7656 19.6875C17.85 19.6875 20.3438 17.1937 20.3438 14.1094C20.3438 11.025 17.85 8.53125 14.7656 8.53125ZM19.0312 13.7812H17.0625C17.0625 12.4688 16.8656 11.1562 16.4719 10.1719C17.85 10.8281 18.9 12.1406 19.0312 13.7812ZM14.7656 18.375C14.5031 18.2437 13.9125 17.1938 13.7812 15.0938H15.6844C15.5531 17.1938 15.0281 18.2437 14.7656 18.375ZM13.7812 13.7812C13.8469 11.2875 14.5031 9.975 14.7 9.84375C14.9625 9.975 15.6187 11.2875 15.6844 13.7812H13.7812ZM13.0594 10.1719C12.6656 11.1562 12.5344 12.4688 12.4688 13.7812H10.5C10.6313 12.1406 11.6812 10.8281 13.0594 10.1719ZM10.6313 15.0938H12.4688C12.5344 16.1438 12.7312 17.1938 13.0594 18.0469C11.8781 17.5219 10.9594 16.4062 10.6313 15.0938ZM16.4719 18.0469C16.8 17.1938 16.9969 16.2094 17.0625 15.0938H18.9656C18.5719 16.4062 17.6531 17.5219 16.4719 18.0469Z" fill="white"/>
<path d="M16.9312 6.5625C16.3406 3.54375 13.65 1.3125 10.5 1.3125C7.35 1.3125 4.65937 3.54375 4.06875 6.62813C1.77187 7.0875 0 9.05625 0 11.4844C0 14.175 2.23125 16.4062 4.92188 16.4062H7.21875V15.0938H4.92188C2.95312 15.0938 1.3125 13.4531 1.3125 11.4844C1.3125 9.58125 2.75625 8.00625 4.65937 7.875H5.25V7.28438C5.57812 4.65938 7.80938 2.625 10.5 2.625C12.9281 2.625 14.9625 4.33125 15.5531 6.5625H16.9312Z" fill="white"/>
</g>
<defs>
<clipPath id="clip0_813_1202">
<rect width="21" height="21" fill="white"/>
</clipPath>
</defs>
</svg>
